HIERARCHY
ROOT pelvis
{
  OFFSET 0 100 0
  CHANNELS 6 Xposition Yposition Zposition Zrotation Xrotation Yrotation
  JOINT pelvis_right_femur
  {
    OFFSET -10.78128 -3.44521 -0.5502486
    CHANNELS 3 Zrotation Xrotation Yrotation
    JOINT right_femur_tibia
    {
      OFFSET -0.8047443 -44.0398 -0.1307829
      CHANNELS 3 Zrotation Xrotation Yrotation
      JOINT right_tibia_foot
      {
        OFFSET 3.006224 -47.83518 -5
        CHANNELS 3 Zrotation Xrotation Yrotation
        End Site
        {
          OFFSET 0 -5 15
        }
      }
    }
  }
  JOINT pelvis_left_femur
  {
    OFFSET 10.78128 -3.44521 -0.5502486
    CHANNELS 3 Zrotation Xrotation Yrotation
    JOINT left_femur_tibia
    {
      OFFSET 0.8047443 -44.0398 -0.1307829
      CHANNELS 3 Zrotation Xrotation Yrotation
      JOINT left_tibia_foot
      {
        OFFSET -4.370144 -48.10324 -4.275266
        CHANNELS 3 Zrotation Xrotation Yrotation
        End Site
        {
          OFFSET 0 -5 15
        }
      }
    }
  }
  JOINT pelvis_spine1
  {
    OFFSET 0 6.468898 -3.129235
    CHANNELS 3 Zrotation Xrotation Yrotation
    JOINT spine1
    {
      OFFSET 0 23.15396 4.99043
      CHANNELS 3 Zrotation Xrotation Yrotation
      JOINT spine2
      {
        OFFSET 0 20.79997 -5.064912
        CHANNELS 3 Zrotation Xrotation Yrotation
        JOINT neck
        {
          OFFSET 0 14.38658 9.616178
          CHANNELS 3 Zrotation Xrotation Yrotation
          End Site
          {
            OFFSET 0 20 0
          }
        }
      }
      JOINT right_manubrium
      {
        OFFSET -5.722621 16.35077 3.967754
        CHANNELS 3 Zrotation Xrotation Yrotation
        JOINT right_clavicle
        {
          OFFSET -13.16364 1.694482 -4.693211
          CHANNELS 3 Zrotation Xrotation Yrotation
          JOINT right_humerus
          {
            OFFSET -28.5034 -0.3100689 -2.792744
            CHANNELS 3 Zrotation Xrotation Yrotation
            JOINT right_radius
            {
              OFFSET -25.15693 0.02248979 -1.271978
              CHANNELS 3 Zrotation Xrotation Yrotation
              End Site
              {
                OFFSET -15 0 0
              }
            }
          }
        }
      }
      JOINT left_manubrium
      {
        OFFSET 5.722621 16.35077 3.967754
        CHANNELS 3 Zrotation Xrotation Yrotation
        JOINT left_clavicle
        {
          OFFSET 13.16364 1.694482 -4.693211
          CHANNELS 3 Zrotation Xrotation Yrotation
          JOINT left_humerus
          {
            OFFSET 29.39168 -1.063119 -2.237045
            CHANNELS 3 Zrotation Xrotation Yrotation
            JOINT left_radius
            {
              OFFSET 24.59957 -0.9528479 0.9047498
              CHANNELS 3 Zrotation Xrotation Yrotation
              End Site
              {
                OFFSET 15 -0 -0
              }
            }
          }
        }
      }
    }
  }
}
MOTION
Frames: 17
Frame Time: 0.0416666666667
0 103.5113 0 0.2635818 0.5777012 -0.1008859 4.84122 -19.06067 10.12015 -0 35.61924 -0 -5.196162 -17.02395 -3.544542 -6.993304 8.993279 -22.89332 -0 6.348338 -0 9.3603 -18.21767 27.74516 -4.001684 -3.893403 4.924328 3.355857 9.600125 -8.295027 1.430711 21.54681 6.492386 2.866358 -25.43746 9.646696 7.228948 -19.76365 11.79007 83.65402 35.75283 -18.09616 -0 0 17.34267 -6.87463 9.259189 3.831604 7.125052 -19.87898 0.4033677 -95.39674 23.78052 22.91082 0 0 -11.40835 11.73055 18.52117 0.06765404
0.3415378 103.4364 1.601887 0.1952149 0.5770582 -0.1655933 4.836235 -20.21395 9.516454 -0 34.22629 -0 -5.361289 -15.89144 -3.325231 -6.850938 9.582393 -22.27431 -0 6.249304 -0 9.028662 -18.71064 27.07448 -3.908624 -3.652905 4.781319 3.368564 9.624771 -8.356033 1.375507 21.51076 6.598801 2.871525 -25.56836 9.666146 6.833819 -19.66246 11.74747 84.24645 35.37786 -18.53164 -0 0 16.74081 -7.273604 9.126926 3.998506 7.142367 -20.2345 0.1758887 -94.58035 23.52538 22.03256 0 0 -12.61146 11.91578 18.10614 -0.1690495
0.6660526 103.1951 3.601772 -0.04696872 0.9847708 -0.138279 5.078008 -22.94151 8.385081 -0 30.53587 -0 -5.54128 -13.42011 -2.827617 -6.543747 10.63003 -21.15036 -0 6.194469 -0 7.865764 -20.22823 25.5416 -3.766013 -3.21003 4.493417 3.538579 9.550124 -8.530705 1.289227 21.22824 6.852943 2.988406 -26.0503 9.732513 6.262293 -19.40031 11.65403 84.96523 34.71196 -19.28548 -0 0 15.89171 -7.940369 9.08377 4.328735 7.356013 -20.85364 0.0140221 -93.56163 23.20854 20.83431 0 0 -14.48769 11.66824 17.39379 -0.03749254
0.9719522 102.808 5.995169 -0.3307885 1.486156 -0.01549669 5.401281 -25.56095 7.434669 -0 27.01866 -0 -5.717045 -11.12077 -2.381781 -6.237759 11.59965 -20.11725 -0 6.383124 -0 6.60644 -21.60865 24.01605 -3.604927 -2.806767 4.197591 3.723816 9.436957 -8.703979 1.222729 20.90968 7.093515 3.129206 -26.52167 9.801242 5.813105 -19.10047 11.55985 85.51945 34.19093 -19.9456 -0 0 15.14732 -8.466112 9.111064 4.601295 7.575233 -21.3666 -0.06408457 -92.78308 22.98502 19.85686 0 0 -16.04544 11.33601 16.74367 0.1786515
1.258336 102.3096 8.804208 -0.6802979 2.099736 0.2112854 5.858568 -28.17686 6.676014 -0 23.66668 -0 -5.909063 -8.905162 -1.974064 -5.910044 12.52564 -19.10632 -0 6.897151 -0 5.263026 -22.78257 22.43114 -3.392131 -2.421643 3.877178 3.91658 9.2969 -8.880285 1.168632 20.53923 7.333654 3.300221 -26.98698 9.87214 5.475421 -18.74755 11.47125 85.97169 33.84504 -20.55689 -0 0 14.43872 -8.864772 9.211932 4.830352 7.785516 -21.79258 -0.09001386 -92.14827 22.81408 19.0184 0 0 -17.40476 10.99858 16.07686 0.4036099
1.520741 101.74 12.06148 -1.104885 2.753714 0.5458997 6.427077 -30.70406 6.066214 -0 20.59475 -0 -6.170025 -6.79166 -1.616989 -5.530745 13.46473 -18.0594 -0 7.866564 -0 3.722482 -23.66078 20.65744 -3.094849 -2.028955 3.490905 4.098773 9.117182 -9.050661 1.116936 20.16053 7.566543 3.48815 -27.399 9.92027 5.216983 -18.31102 11.37897 86.39973 33.62112 -21.15384 -0 0 13.67533 -9.183813 9.35708 5.039299 7.917229 -22.11429 -0.143262 -91.60698 22.79612 18.27326 0 0 -18.59692 10.54557 15.41828 0.7720663
1.751728 101.1512 15.80808 -1.60224 3.365418 0.9802667 7.079699 -32.96518 5.580509 -0 17.93547 -0 -6.553319 -4.850299 -1.324219 -5.080731 14.42507 -16.94156 -0 9.496033 -0 1.948498 -24.0553 18.61995 -2.677333 -1.610734 3.018742 4.248153 8.889595 -9.192266 1.065843 19.8287 7.770638 3.66838 -27.7086 9.921048 4.996829 -17.76944 11.27462 86.88296 33.47937 -21.74245 -0 0 12.77544 -9.435571 9.50653 5.238364 7.888408 -22.29035 -0.3054772 -91.11147 22.99433 17.58279 0 0 -19.61885 9.934811 14.77123 1.350172
1.942036 100.6156 20.08144 -2.150408 3.833506 1.484394 7.778843 -34.6135 5.216771 -0 15.88407 -0 -7.108136 -3.25237 -1.12458 -4.550952 15.31595 -15.76808 -0 12.11264 -0 -0.03260836 -23.6822 16.31825 -2.108866 -1.1628 2.471569 4.339975 8.60358 -9.263877 1.022234 19.6174 7.903704 3.803088 -27.85709 9.843292 4.783129 -17.11066 11.15331 87.46526 33.39684 -22.27711 -0 0 11.69505 -9.585396 9.616288 5.419675 7.605654 -22.24186 -0.6438637 -90.65701 23.46974 16.96166 0 0 -20.38214 9.130659 14.15039 2.207208
2.08426 100.2355 24.8962 -2.696336 4.033546 1.994596 8.469957 -35.0811 4.995879 -0 14.70358 -0 -7.866367 -2.282228 -1.065072 -3.952331 15.86943 -14.61086 -0 16.20159 -0 -2.090159 -22.17539 13.8885 -1.374344 -0.7056188 1.923585 4.34498 8.267305 -9.208503 0.9976653 19.61035 7.906938 3.842667 -27.77798 9.650543 4.562641 -16.35266 11.02669 88.13152 33.37389 -22.65029 -0 0 10.45476 -9.559149 9.653075 5.552137 6.999 -21.88666 -1.175275 -90.27256 24.21257 16.47864 0 0 -20.74172 8.162963 13.57331 3.351805
2.182311 100.1481 30.21277 -3.146092 3.849385 2.408236 9.056917 -33.63107 4.933962 -0 14.61839 -0 -8.794372 -2.295708 -1.189239 -3.338754 15.54584 -13.58518 -0 22.33045 -0 -3.999325 -19.22798 11.62434 -0.5112814 -0.2941507 1.548135 4.239931 7.939025 -8.972991 0.9930569 19.86118 7.733389 3.750187 -27.42325 9.307637 4.379808 -15.58048 10.94421 88.74406 33.44451 -22.70156 -0 0 9.199243 -9.311433 9.640004 5.618344 6.08505 -21.21085 -1.81396 -90.03707 25.07237 16.29175 0 0 -20.55044 7.133291 13.05218 4.718341
2.264743 100.4996 35.90637 -3.363797 3.249967 2.604028 9.355534 -29.72043 4.956175 -0 15.47705 -0 -9.723396 -3.5036 -1.452694 -2.844795 13.59313 -12.7654 -0 30.7938 -0 -5.513625 -14.9163 9.876814 0.3295701 0.003648554 1.608177 4.028349 7.755499 -8.547303 0.9733837 20.32678 7.412214 3.551481 -26.82192 8.805853 4.356192 -14.97746 10.99947 89.03283 33.67505 -22.30338 -0 0 8.207483 -8.975549 9.693658 5.706375 5.021187 -20.375 -2.37061 -90.04099 25.72918 16.61425 0 0 -19.84581 6.177136 12.53702 6.179114
2.383272 101.3672 41.76877 -3.190586 2.348709 2.504084 9.10637 -23.6313 4.846086 -0 16.44277 -0 -10.34351 -5.648234 -1.640082 -2.668858 9.479358 -12.08358 -0 40.95998 -0 -6.435619 -10.04981 8.856979 0.8511032 0.1733673 2.312261 3.750557 7.876964 -7.986542 0.876107 20.86456 7.077279 3.354898 -26.09641 8.196165 4.616638 -14.75827 11.27161 88.7324 34.12331 -21.47582 -0 0 7.755769 -8.939168 9.961884 6.049289 4.059221 -19.70635 -2.670399 -90.26052 25.86664 17.50425 0 0 -19.01836 5.37838 11.88654 7.575712
2.571021 102.6592 47.57422 -2.518719 1.280261 2.14429 8.160769 -16.62083 4.384729 -0 16.42276 -0 -10.40394 -7.983502 -1.510814 -2.876421 3.522557 -11.34932 -0 50.89877 -0 -6.635573 -6.022822 8.607911 0.7373804 0.2870664 3.566875 3.442475 8.320915 -7.36741 0.7032883 21.39697 6.833656 3.251839 -25.30128 7.580226 5.098432 -14.96378 11.70431 87.81289 34.69626 -20.32755 -0 0 7.874729 -9.596792 10.44422 6.805519 3.410315 -19.46346 -2.692335 -90.46619 25.48047 18.55996 0 0 -18.55065 4.798846 11.08387 8.626521
2.797343 104.1016 53.16938 -1.44696 0.03517574 1.673996 6.742953 -9.999671 3.59489 -0 15.06127 -0 -9.965484 -9.790534 -1.111035 -3.174402 -3.172524 -10.37735 -0 57.99416 -0 -6.152426 -3.908122 9.231492 -0.04071571 0.4319734 4.940735 3.086075 8.900789 -6.726435 0.5734214 22.00599 6.613517 3.211254 -24.30194 7.041638 5.490014 -15.4211 12.10246 86.48312 35.05672 -18.81017 -0 0 8.399394 -10.99015 10.9491 7.820714 3.174465 -19.59486 -2.541498 -90.47596 24.88216 19.17247 0 0 -18.39227 4.543822 10.45823 8.951172
3.003108 105.3554 58.50905 -0.3333836 -1.360828 1.25961 5.414101 -4.267975 2.759951 -0 12.85718 -0 -9.290074 -10.88282 -0.7005885 -3.067797 -9.606018 -9.068413 -0 60.19483 -0 -5.277298 -3.665452 10.82722 -1.082209 0.6425179 6.01266 2.643158 9.421073 -6.080363 0.5730483 22.68777 6.324764 3.152012 -23.06266 6.614267 5.472898 -16.05792 12.3295 84.99375 34.87321 -16.77044 -0 0 9.362694 -12.86003 11.28618 8.856815 3.344171 -19.81588 -2.331375 -90.45282 24.29898 19.32027 0 0 -18.01483 4.625003 10.26732 8.492798
3.173418 106.1495 63.64286 0.4391837 -2.673422 0.9695388 4.637093 0.6724994 2.135488 -0 10.46003 -0 -8.56494 -11.60904 -0.4099656 -2.271592 -15.31355 -7.46272 -0 56.9539 -0 -4.387132 -4.426877 13.12762 -1.856666 0.8957525 6.648638 2.117027 9.805097 -5.468872 0.6488734 23.24505 6.011449 3.032694 -21.83307 6.314752 4.934369 -16.99864 12.39253 83.58102 34.10431 -14.28148 -0 0 10.98725 -14.91188 11.36353 9.855811 3.798772 -19.86967 -2.139279 -90.6647 23.73363 19.56382 0 0 -17.10825 4.874115 10.3263 7.662552
3.342788 106.3411 68.68261 0.7031014 -3.657981 0.759236 4.48264 5.025921 1.728579 -0 8.305816 -0 -7.877359 -12.47997 -0.194204 -0.8787271 -20.07795 -5.757444 -0 49.24782 -0 -3.74241 -5.316274 15.56515 -2.092317 1.128801 6.914568 1.564431 10.01519 -4.934067 0.7142242 23.5373 5.749447 2.834802 -20.87442 6.148607 3.948005 -18.28881 12.32655 82.42646 32.92918 -11.62956 -0 0 13.27404 -16.90836 11.14599 10.8384 4.34083 -19.64435 -2.007577 -91.15553 23.18601 20.30349 0 0 -15.73402 5.062027 10.37654 6.951516
